<svg version="1.1" viewBox="0.0 0.0 386.6062992125984 387.1496062992126" fill="none" stroke="none" stroke-linecap="square" stroke-miterlimit="10" xmlns:xlink="http://www.w3.org/1999/xlink" xmlns="http://www.w3.org/2000/svg"><clipPath id="p.0"><path d="m0 0l386.6063 0l0 387.1496l-386.6063 0l0 -387.1496z" clip-rule="nonzero"/></clipPath><g clip-path="url(#p.0)"><path fill="#000000" fill-opacity="0.0" d="m0 0l386.6063 0l0 387.1496l-386.6063 0z" fill-rule="evenodd"/><defs><linearGradient id="p.1" gradientUnits="userSpaceOnUse" gradientTransform="matrix(23.395171623248025 0.0 0.0 23.395171623248025 0.0 0.0)" spreadMethod="pad" x1="24.805407756738425" y1="8.274287283732994" x2="8.26267576201895" y2="-8.26874972378513"><stop offset="0.0" stop-color="#ff0000"/><stop offset="1.0" stop-color="#007bff"/></linearGradient></defs><path fill="url(#p.1)" d="m-0.20866142 10.857081l0 0c0 -5.961411 4.8326783 -10.794089 10.794088 -10.794089l365.43546 0c2.8627625 0 5.6082764 1.1372311 7.6325684 3.1615155c2.024292 2.0242841 3.1615295 4.769803 3.1615295 7.632574l0 365.43542c0 5.961426 -4.8327026 10.794098 -10.794098 10.794098l-365.43546 0c-5.9614105 0 -10.794088 -4.832672 -10.794088 -10.794098z" fill-rule="evenodd"/><path fill="#000000" fill-opacity="0.0" d="m-0.20866142 193.5748l387.02362 0" fill-rule="evenodd"/><path stroke="#ffffff" stroke-width="24.0" stroke-linejoin="round" stroke-linecap="butt" d="m-0.20866142 193.5748l387.02362 0" fill-rule="evenodd"/><path fill="#000000" fill-opacity="0.0" d="m193.30315 0.062992126l0 387.02362" fill-rule="evenodd"/><path stroke="#ffffff" stroke-width="24.0" stroke-linejoin="round" stroke-linecap="butt" d="m193.30315 0.062992126l0 387.02362" fill-rule="evenodd"/></g></svg>